<svg width="29" height="29" viewBox="0 0 29 29" fill="none" xmlns="http://www.w3.org/2000/svg">
<path fill-rule="evenodd" clip-rule="evenodd" d="M1.53301 10.7762C-0.510694 12.8199 -0.510699 16.1334 1.533 18.1771L10.7753 27.4193C12.819 29.463 16.1325 29.463 18.1762 27.4193L27.4196 18.1759C29.4633 16.1322 29.4633 12.8187 27.4196 10.775L18.1774 1.53274C16.1337 -0.510957 12.8202 -0.510954 10.7765 1.53275L1.53301 10.7762ZM7.26232 11.7315C6.89653 12.7001 6.71363 13.7366 6.71363 14.8407H8.13617C8.13617 13.933 8.28181 13.0829 8.57309 12.2903C8.86437 11.4978 9.27758 10.8 9.81272 10.1972C10.3479 9.59427 10.9846 9.12348 11.723 8.78478C12.4681 8.44608 13.2945 8.27673 14.2023 8.27673C15.11 8.27673 15.9601 8.44608 16.7527 8.78478C17.5452 9.13025 18.2395 9.60443 18.8357 10.2073C19.4385 10.8102 19.9093 11.5079 20.248 12.3005C20.5867 13.093 20.7561 13.9398 20.7561 14.8407C20.7561 15.7416 20.5867 16.585 20.248 17.3708C19.9093 18.1633 19.4385 18.8611 18.8357 19.4639C18.2395 20.0668 17.5452 20.5376 16.7527 20.8763C15.9601 21.2218 15.11 21.3945 14.2023 21.3945C13.7145 21.3945 13.2166 21.3336 12.7086 21.2116C12.2073 21.0897 11.7839 20.9 11.4385 20.6426C11.0998 20.3852 10.9304 20.0533 10.9304 19.6468C10.9304 19.3285 11.0388 19.0406 11.2556 18.7832C11.4723 18.5258 11.7433 18.397 12.0685 18.397H17.8602L18.0329 17.2489H16.8746C17.2878 16.9779 17.6163 16.6019 17.8602 16.121C18.1108 15.64 18.2362 15.1083 18.2362 14.5257C18.2362 13.7874 18.0533 13.11 17.6875 12.4935C17.3284 11.8839 16.8441 11.3961 16.2344 11.0304C15.6248 10.6713 14.9474 10.4918 14.2023 10.4918C13.4571 10.4918 12.7763 10.6713 12.1599 11.0304C11.5502 11.3961 11.0625 11.8839 10.6967 12.4935C10.3377 13.11 10.1582 13.7874 10.1582 14.5257C10.1582 15.1218 10.2835 15.6468 10.5342 16.1007C10.7916 16.5545 11.1336 16.9203 11.5604 17.1981C11.1743 17.2319 10.8254 17.3742 10.5138 17.6248C10.2022 17.8754 9.95498 18.1871 9.77208 18.5596C9.59596 18.939 9.5079 19.3251 9.5079 19.718C9.5079 20.2125 9.64337 20.6494 9.91433 21.0287C10.1921 21.4148 10.5579 21.74 11.0117 22.0042C11.4723 22.2684 11.9804 22.4682 12.5359 22.6037C13.0913 22.7459 13.6468 22.8171 14.2023 22.8171C15.2996 22.8171 16.3293 22.6105 17.2912 22.1972C18.2531 21.7908 19.0998 21.2218 19.8314 20.4902C20.563 19.7654 21.1354 18.9186 21.5486 17.95C21.9686 16.9881 22.1786 15.9516 22.1786 14.8407C22.1786 13.7366 21.972 12.7001 21.5588 11.7315C21.1456 10.7696 20.5732 9.92281 19.8416 9.19122C19.11 8.45963 18.2599 7.88723 17.2912 7.47402C16.3293 7.06081 15.2996 6.8542 14.2023 6.8542C13.1049 6.8542 12.0989 7.0608 11.1845 7.47402C10.27 7.88723 9.47741 8.45963 8.80679 9.19122C8.14294 9.92281 7.62812 10.7696 7.26232 11.7315ZM11.7433 15.9991C11.452 15.6129 11.3064 15.1523 11.3064 14.6172C11.3064 14.0956 11.4351 13.6146 11.6925 13.1743C11.9499 12.734 12.2954 12.3818 12.7289 12.1176C13.1692 11.8534 13.6603 11.7213 14.2023 11.7213C14.7374 11.7213 15.2217 11.85 15.6553 12.1074C16.0956 12.3716 16.4444 12.7205 16.7019 13.154C16.9593 13.5943 17.088 14.082 17.088 14.6172C17.088 15.1862 16.9559 15.6637 16.6917 16.0499C16.4343 16.436 16.0956 16.7239 15.6756 16.9135C15.2556 17.11 14.8051 17.2082 14.3242 17.2082C13.8229 17.2082 13.3386 17.1032 12.8712 16.8932C12.4105 16.6832 12.0346 16.3852 11.7433 15.9991Z" fill="#000"/>
</svg>
