<svg width="134" height="29" viewBox="0 0 134 29" fill="black" xmlns="http://www.w3.org/2000/svg">
<path fill-rule="evenodd" clip-rule="evenodd" d="M1.53301 10.7762C-0.510694 12.8199 -0.510699 16.1334 1.533 18.1771L10.7753 27.4193C12.819 29.463 16.1325 29.463 18.1762 27.4193L27.4196 18.1759C29.4633 16.1322 29.4633 12.8187 27.4196 10.775L18.1774 1.53274C16.1337 -0.510957 12.8202 -0.510954 10.7765 1.53275L1.53301 10.7762ZM7.26232 11.7315C6.89653 12.7001 6.71363 13.7366 6.71363 14.8407H8.13617C8.13617 13.933 8.28181 13.0829 8.57309 12.2903C8.86437 11.4978 9.27758 10.8 9.81272 10.1972C10.3479 9.59427 10.9846 9.12348 11.723 8.78478C12.4681 8.44608 13.2945 8.27673 14.2023 8.27673C15.11 8.27673 15.9601 8.44608 16.7527 8.78478C17.5452 9.13025 18.2395 9.60443 18.8357 10.2073C19.4385 10.8102 19.9093 11.5079 20.248 12.3005C20.5867 13.093 20.7561 13.9398 20.7561 14.8407C20.7561 15.7416 20.5867 16.585 20.248 17.3708C19.9093 18.1633 19.4385 18.8611 18.8357 19.4639C18.2395 20.0668 17.5452 20.5376 16.7527 20.8763C15.9601 21.2218 15.11 21.3945 14.2023 21.3945C13.7145 21.3945 13.2166 21.3336 12.7086 21.2116C12.2073 21.0897 11.7839 20.9 11.4385 20.6426C11.0998 20.3852 10.9304 20.0533 10.9304 19.6468C10.9304 19.3285 11.0388 19.0406 11.2556 18.7832C11.4723 18.5258 11.7433 18.397 12.0685 18.397H17.8602L18.0329 17.2489H16.8746C17.2878 16.9779 17.6163 16.6019 17.8602 16.121C18.1108 15.64 18.2362 15.1083 18.2362 14.5257C18.2362 13.7874 18.0533 13.11 17.6875 12.4935C17.3284 11.8839 16.8441 11.3961 16.2344 11.0304C15.6248 10.6713 14.9474 10.4918 14.2023 10.4918C13.4571 10.4918 12.7763 10.6713 12.1599 11.0304C11.5502 11.3961 11.0625 11.8839 10.6967 12.4935C10.3377 13.11 10.1582 13.7874 10.1582 14.5257C10.1582 15.1218 10.2835 15.6468 10.5342 16.1007C10.7916 16.5545 11.1336 16.9203 11.5604 17.1981C11.1743 17.2319 10.8254 17.3742 10.5138 17.6248C10.2022 17.8754 9.95498 18.1871 9.77208 18.5596C9.59596 18.939 9.5079 19.3251 9.5079 19.718C9.5079 20.2125 9.64337 20.6494 9.91433 21.0287C10.1921 21.4148 10.5579 21.74 11.0117 22.0042C11.4723 22.2684 11.9804 22.4682 12.5359 22.6037C13.0913 22.7459 13.6468 22.8171 14.2023 22.8171C15.2996 22.8171 16.3293 22.6105 17.2912 22.1972C18.2531 21.7908 19.0998 21.2218 19.8314 20.4902C20.563 19.7654 21.1354 18.9186 21.5486 17.95C21.9686 16.9881 22.1786 15.9516 22.1786 14.8407C22.1786 13.7366 21.972 12.7001 21.5588 11.7315C21.1456 10.7696 20.5732 9.92281 19.8416 9.19122C19.11 8.45963 18.2599 7.88723 17.2912 7.47402C16.3293 7.06081 15.2996 6.8542 14.2023 6.8542C13.1049 6.8542 12.0989 7.0608 11.1845 7.47402C10.27 7.88723 9.47741 8.45963 8.80679 9.19122C8.14294 9.92281 7.62812 10.7696 7.26232 11.7315ZM11.7433 15.9991C11.452 15.6129 11.3064 15.1523 11.3064 14.6172C11.3064 14.0956 11.4351 13.6146 11.6925 13.1743C11.9499 12.734 12.2954 12.3818 12.7289 12.1176C13.1692 11.8534 13.6603 11.7213 14.2023 11.7213C14.7374 11.7213 15.2217 11.85 15.6553 12.1074C16.0956 12.3716 16.4444 12.7205 16.7019 13.154C16.9593 13.5943 17.088 14.082 17.088 14.6172C17.088 15.1862 16.9559 15.6637 16.6917 16.0499C16.4343 16.436 16.0956 16.7239 15.6756 16.9135C15.2556 17.11 14.8051 17.2082 14.3242 17.2082C13.8229 17.2082 13.3386 17.1032 12.8712 16.8932C12.4105 16.6832 12.0346 16.3852 11.7433 15.9991Z" fill="#000"/>
<path d="M40.017 22.2294V19.6179L49.484 9.41637L49.2119 11.2934H40.0986V8.49143H51.6059V11.0758L42.1661 21.3317L42.3565 19.4002H51.6059V22.2294H40.017ZM55.326 19.8355V15.6733L62.2902 8.49143H66.1532V8.70906L55.326 19.8355ZM53.4762 22.2294V2.64258L56.523 2.26172L56.6046 2.47936V22.2294H53.4762ZM62.7255 22.2294L57.992 15.3196L60.1683 13.3609L66.2076 22.0118V22.2294H62.7255ZM73.1357 22.6375C71.7392 22.6375 70.506 22.3292 69.436 21.7126C68.3841 21.0959 67.5589 20.2435 66.9604 19.1554C66.3619 18.0672 66.0627 16.7977 66.0627 15.3468C66.0627 13.9141 66.3528 12.6536 66.9332 11.5655C67.5317 10.4592 68.3478 9.60679 69.3816 9.00831C70.4334 8.39168 71.6395 8.08337 72.9997 8.08337C74.3599 8.08337 75.5387 8.40075 76.5362 9.03551C77.5518 9.65213 78.3407 10.5227 78.9029 11.6471C79.4833 12.7715 79.7735 14.0864 79.7735 15.5917V16.1085L79.3654 16.5166H67.5317V13.905H78.3589L76.6994 14.5307C76.6813 13.769 76.4999 13.1161 76.1553 12.572C75.8289 12.0098 75.3936 11.5836 74.8495 11.2934C74.3236 10.9851 73.7251 10.831 73.0541 10.831C72.3286 10.831 71.6667 11.0033 71.0682 11.3478C70.4697 11.6743 70.0072 12.1368 69.6808 12.7352C69.3543 13.3156 69.1911 13.9957 69.1911 14.7755V15.8637C69.1911 16.6073 69.3634 17.2874 69.708 17.904C70.0707 18.5025 70.5513 18.9831 71.1498 19.3458C71.7483 19.7085 72.4103 19.8899 73.1357 19.8899C73.8249 19.8899 74.4506 19.7085 75.0128 19.3458C75.5931 18.965 76.0465 18.4571 76.373 17.8224H76.6994L79.2294 18.9105C78.6853 20.0894 77.8783 21.0053 76.8082 21.6581C75.7563 22.311 74.5322 22.6375 73.1357 22.6375ZM81.9266 22.2294V8.49143H84.8646V11.8375L84.3478 11.3206C84.6561 10.6315 85.0551 10.0511 85.5447 9.57959C86.0344 9.10805 86.6057 8.74534 87.2586 8.49143C87.9115 8.21939 88.646 8.08337 89.4621 8.08337C90.6047 8.08337 91.6203 8.40075 92.509 9.03551C93.3976 9.67027 93.9961 10.6043 94.3044 11.8375L93.2979 11.7831C93.6062 11.0033 94.0414 10.3413 94.6037 9.79722C95.1659 9.25314 95.8188 8.83602 96.5623 8.54584C97.3241 8.23753 98.122 8.08337 98.9563 8.08337C99.8812 8.08337 100.725 8.301 101.486 8.73627C102.266 9.15339 102.883 9.77909 103.336 10.6133C103.808 11.4295 104.043 12.4541 104.043 13.6874V22.2294H100.915V14.4491C100.915 13.633 100.797 12.971 100.561 12.4632C100.326 11.9373 99.9991 11.5564 99.582 11.3206C99.1649 11.0667 98.6843 10.9398 98.1402 10.9398C97.6324 10.9398 97.0974 11.0758 96.5351 11.3478C95.9911 11.6199 95.5195 12.0733 95.1205 12.708C94.7397 13.3247 94.5493 14.1861 94.5493 15.2924V22.2294H91.4208V14.4491C91.4208 13.633 91.3029 12.971 91.0671 12.4632C90.8314 11.9373 90.5049 11.5564 90.0878 11.3206C89.6707 11.0667 89.1901 10.9398 88.646 10.9398C88.1382 10.9398 87.6032 11.0758 87.041 11.3478C86.4969 11.6199 86.0253 12.0733 85.6264 12.708C85.2455 13.3428 85.0551 14.2043 85.0551 15.2924V22.2294H81.9266ZM111.05 22.6375C110.107 22.6375 109.264 22.4561 108.52 22.0934C107.795 21.7307 107.224 21.2229 106.807 20.57C106.389 19.9171 106.181 19.1735 106.181 18.3393C106.181 17.0516 106.625 16.0269 107.514 15.2652C108.403 14.4854 109.681 14.032 111.35 13.905L116.682 13.4698V16.0541L111.812 16.4622C110.942 16.5347 110.316 16.7161 109.935 17.0063C109.554 17.2964 109.364 17.6864 109.364 18.176C109.364 18.6657 109.581 19.0647 110.017 19.373C110.452 19.6813 111.005 19.8355 111.676 19.8355C112.383 19.8355 113.018 19.6632 113.58 19.3186C114.161 18.9559 114.623 18.4934 114.968 17.9312C115.312 17.369 115.485 16.7614 115.485 16.1085V13.8506C115.485 12.9801 115.194 12.2637 114.614 11.7015C114.034 11.1211 113.272 10.831 112.329 10.831C111.531 10.831 110.869 11.0305 110.343 11.4295C109.835 11.8103 109.509 12.2909 109.364 12.8713H109.064L106.398 12.2184C106.725 10.9851 107.405 9.98765 108.439 9.22594C109.491 8.46423 110.796 8.08337 112.356 8.08337C114.297 8.08337 115.811 8.64559 116.899 9.77002C117.987 10.8763 118.531 12.4451 118.531 14.4763V22.2294H115.757V18.2304L116.872 18.3937C116.654 19.1735 116.264 19.8899 115.702 20.5428C115.14 21.1775 114.46 21.6854 113.662 22.0662C112.882 22.4471 112.012 22.6375 111.05 22.6375ZM121.299 22.2294V8.49143H124.427V22.2294H121.299ZM122.877 6.42393C122.333 6.42393 121.87 6.2335 121.489 5.85265C121.109 5.47179 120.918 5.00026 120.918 4.43804C120.918 3.9121 121.109 3.4587 121.489 3.07784C121.87 2.67885 122.342 2.47936 122.904 2.47936C123.43 2.47936 123.883 2.67885 124.264 3.07784C124.663 3.4587 124.863 3.92117 124.863 4.46524C124.863 5.00932 124.663 5.47179 124.264 5.85265C123.883 6.2335 123.421 6.42393 122.877 6.42393ZM127.745 22.2294V2.64258L130.792 2.26172L130.874 2.47936V22.2294H127.745Z" fill="#000"/>
</svg>
